<svg width="1024" height="1024" viewBox="0 0 1024 1024" fill="none" xmlns="http://www.w3.org/2000/svg">
  <rect width="1024" height="1024" rx="224" fill="#0B2F28"/>
  <path d="M514 113C674 229 778 407 786 630C710 583 639 552 572 538C574 689 566 794 548 912H423C451 770 462 656 455 571C378 607 308 660 244 730C242 497 337 294 514 113Z" fill="#134C3F"/>
  <path d="M509 151C614 273 679 405 706 548C640 511 586 492 543 492C542 642 531 768 511 871H436C462 719 463 595 439 499C384 527 333 570 286 628C298 442 373 283 509 151Z" fill="url(#glassA)" fill-opacity="0.88"/>
  <path d="M535 211C616 324 655 429 653 527C601 493 555 476 516 475C487 385 493 297 535 211Z" fill="url(#glassB)" fill-opacity="0.92"/>
  <path d="M445 311C493 437 510 555 494 666C447 615 400 586 352 579C357 476 388 386 445 311Z" fill="url(#glassC)" fill-opacity="0.86"/>
  <path d="M585 645C637 646 681 666 716 705C673 766 617 815 548 852C571 778 583 709 585 645Z" fill="#1B6E5A" fill-opacity="0.7"/>
  <path d="M357 233C423 189 496 160 575 146" stroke="white" stroke-opacity="0.48" stroke-width="27" stroke-linecap="round"/>
  <path d="M653 256C723 334 763 423 772 522" stroke="#D7FFF4" stroke-opacity="0.22" stroke-width="20" stroke-linecap="round"/>
  <path d="M629 717H697V785" stroke="#F5B84C" stroke-width="34" stroke-linecap="round" stroke-linejoin="round"/>
  <path d="M274 747C360 676 457 632 566 618" stroke="#9FF4E3" stroke-opacity="0.23" stroke-width="18" stroke-linecap="round"/>
  <defs>
    <linearGradient id="glassA" x1="320" y1="185" x2="671" y2="830" gradientUnits="userSpaceOnUse">
      <stop stop-color="#D8FFF8" stop-opacity="0.72"/>
      <stop offset="0.43" stop-color="#60D9CB" stop-opacity="0.58"/>
      <stop offset="1" stop-color="#0C5D50" stop-opacity="0.86"/>
    </linearGradient>
    <linearGradient id="glassB" x1="546" y1="214" x2="695" y2="545" gradientUnits="userSpaceOnUse">
      <stop stop-color="#F3FFFC" stop-opacity="0.8"/>
      <stop offset="1" stop-color="#66DBD0" stop-opacity="0.34"/>
    </linearGradient>
    <linearGradient id="glassC" x1="362" y1="332" x2="502" y2="653" gradientUnits="userSpaceOnUse">
      <stop stop-color="#B8FFF2" stop-opacity="0.62"/>
      <stop offset="1" stop-color="#1A8470" stop-opacity="0.42"/>
    </linearGradient>
  </defs>
</svg>
